<svg width="1501" height="322" viewBox="0 0 1501 322" fill="none" xmlns="http://www.w3.org/2000/svg">
<path d="M313.098 148.217L299.498 117.47L293.289 148.217L273.185 249.625H240.368L285.306 32.3225H288.854L348.576 149.696L366.315 189.017L384.054 149.696L442.592 32.3225H445.844L492.557 249.625H460.036L438.157 148.217L431.653 117.47L419.827 148.217L367.201 249.625H365.428L313.098 148.217Z" fill="#285DAA"/>
<path d="M579.635 252.582C567.415 252.582 556.082 249.724 545.635 244.008C535.386 238.095 527.108 229.817 520.801 219.173C514.691 208.333 511.636 195.718 511.636 181.33C511.636 167.139 514.297 154.722 519.618 144.078C525.137 133.435 532.923 125.157 542.975 119.244C553.027 113.331 564.853 110.374 578.453 110.374C586.337 110.374 593.728 111.754 600.626 114.513C607.525 117.273 613.339 120.722 618.07 124.861C622.8 128.803 625.954 132.745 627.531 136.687L628.122 113.922H658.574V249.625H628.417L627.826 225.678C624.475 232.773 618.365 239.08 609.496 244.599C600.626 249.921 590.673 252.582 579.635 252.582ZM584.957 225.973C596.192 225.973 605.652 222.13 613.339 214.443C621.026 206.559 624.87 196.31 624.87 183.695V181.626C624.87 173.15 623.096 165.562 619.548 158.861C616 152.159 611.171 146.936 605.061 143.191C598.951 139.446 592.25 137.574 584.957 137.574C572.342 137.574 562.586 141.713 555.688 149.991C548.789 158.072 545.34 168.617 545.34 181.626C545.34 194.831 548.691 205.573 555.392 213.852C562.29 221.933 572.145 225.973 584.957 225.973Z" fill="#285DAA"/>
<path d="M702.104 113.922H732.851V139.052C743.692 119.933 760.642 110.374 783.703 110.374C802.822 110.374 818.294 116.484 830.12 128.704C841.946 140.727 847.859 158.171 847.859 181.034C847.859 195.226 844.902 207.741 838.989 218.582C833.274 229.422 825.39 237.799 815.337 243.712C805.483 249.625 794.445 252.582 782.225 252.582C770.793 252.582 760.839 250.611 752.364 246.669C744.086 242.53 737.582 236.715 732.851 229.225L733.147 321.468H702.104V113.922ZM774.833 225.678C787.645 225.678 797.5 221.637 804.398 213.556C811.297 205.278 814.746 194.733 814.746 181.921C814.746 168.519 811.297 157.875 804.398 149.991C797.697 141.91 787.842 137.87 774.833 137.87C767.738 137.87 761.036 139.643 754.729 143.191C748.619 146.542 743.692 151.469 739.947 157.974C736.399 164.281 734.625 171.672 734.625 180.147V182.217C734.625 190.692 736.399 198.281 739.947 204.982C743.692 211.486 748.619 216.611 754.729 220.356C760.839 223.904 767.541 225.678 774.833 225.678Z" fill="#285DAA"/>
<path d="M882.519 32.3225H915.928V220.06H978.31V249.625H882.519V32.3225Z" fill="#95BEFA"/>
<path d="M1010.43 113.922H1043.54V249.625H1010.43V113.922ZM1026.69 88.496C1020.58 88.496 1015.46 86.4264 1011.32 82.2873C1007.18 78.1483 1005.11 73.0237 1005.11 66.9135C1005.11 61.3947 1007.18 56.6644 1011.32 52.7224C1015.46 48.7803 1020.58 46.8093 1026.69 46.8093C1032.6 46.8093 1037.63 48.7803 1041.77 52.7224C1045.91 56.6644 1047.98 61.3947 1047.98 66.9135C1047.98 73.0237 1045.91 78.1483 1041.77 82.2873C1037.83 86.4264 1032.8 88.496 1026.69 88.496Z" fill="#95BEFA"/>
<path d="M1168.17 252.582C1157.13 252.582 1147.18 249.921 1138.31 244.599C1129.63 239.08 1123.62 232.773 1120.27 225.678L1119.68 249.625H1088.93V32.3225H1120.27V115.991L1118.79 139.052C1122.15 131.168 1128.65 124.467 1138.31 118.948C1148.16 113.232 1158.81 110.374 1170.24 110.374C1183.64 110.374 1195.27 113.429 1205.12 119.539C1215.18 125.452 1222.86 133.829 1228.18 144.669C1233.51 155.313 1236.17 167.73 1236.17 181.921C1236.17 196.31 1233.01 208.826 1226.71 219.469C1220.6 230.112 1212.32 238.292 1201.87 244.008C1191.62 249.724 1180.39 252.582 1168.17 252.582ZM1162.85 225.973C1175.66 225.973 1185.51 221.933 1192.41 213.852C1199.31 205.573 1202.76 194.93 1202.76 181.921C1202.76 168.716 1199.31 158.072 1192.41 149.991C1185.71 141.713 1175.85 137.574 1162.85 137.574C1151.61 137.574 1142.15 141.516 1134.46 149.4C1126.78 157.087 1122.93 167.237 1122.93 179.852V181.921C1122.93 190.397 1124.71 197.985 1128.26 204.686C1132 211.388 1136.83 216.611 1142.74 220.356C1148.85 224.101 1155.55 225.973 1162.85 225.973Z" fill="#95BEFA"/>
<path d="M1269.34 113.922H1301.27V140.53C1304.42 131.464 1309.54 124.171 1316.64 118.652C1323.74 113.133 1331.82 110.374 1340.88 110.374C1347.19 110.374 1351.53 110.965 1353.89 112.148L1349.46 144.374C1347.68 143.191 1343.84 142.6 1337.93 142.6C1328.66 142.6 1320.19 145.556 1312.5 151.469C1305.01 157.382 1301.27 166.843 1301.27 179.852V249.625H1269.34V113.922Z" fill="#95BEFA"/>
<path d="M1440.63 252.582C1424.47 252.582 1410.96 249.428 1400.12 243.121C1389.28 236.617 1381.3 228.043 1376.18 217.399C1371.05 206.559 1368.49 194.733 1368.49 181.921C1368.49 167.533 1371.45 154.919 1377.36 144.078C1383.47 133.238 1391.85 124.959 1402.49 119.244C1413.13 113.331 1425.16 110.374 1438.56 110.374C1459.45 110.374 1474.92 116.189 1484.98 127.817C1495.22 139.249 1500.35 155.411 1500.35 176.304C1500.35 181.626 1500.05 187.145 1499.46 192.86H1401.9C1404.07 204.884 1408.3 213.556 1414.61 218.878C1421.11 224.199 1430.08 226.86 1441.51 226.86C1450.98 226.86 1458.76 226.072 1464.87 224.495C1470.98 222.918 1476.6 220.75 1481.72 217.991L1491.48 240.756C1486.55 243.909 1479.85 246.669 1471.38 249.034C1462.9 251.399 1452.65 252.582 1440.63 252.582ZM1469.31 170.687C1469.5 158.466 1466.84 149.893 1461.32 144.965C1455.8 139.841 1447.92 137.278 1437.67 137.278C1416.98 137.278 1405.05 148.414 1401.9 170.687H1469.31Z" fill="#95BEFA"/>
<path fill-rule="evenodd" clip-rule="evenodd" d="M0.349121 83.6198C0.349121 37.8067 40.1348 0.531799 89.0441 0.531799C137.953 0.531799 177.739 37.8067 177.739 83.6198C177.739 152.462 105.207 210.586 93.8075 219.72C93.0987 220.288 92.6263 220.667 92.4224 220.847C91.4694 221.681 90.2567 222.1 89.0441 222.1C87.8315 222.1 86.6189 221.681 85.6663 220.847C85.4624 220.667 84.9903 220.288 84.282 219.721C72.8857 210.589 0.349121 152.464 0.349121 83.6198ZM89.0443 131.76C113.263 131.76 132.896 111.832 132.896 87.2503C132.896 62.6681 113.263 42.7403 89.0443 42.7403C64.8258 42.7403 45.1929 62.6681 45.1929 87.2503C45.1929 111.832 64.8258 131.76 89.0443 131.76Z" fill="#95BEFA"/>
<path fill-rule="evenodd" clip-rule="evenodd" d="M39.0594 234.392C32.5269 234.392 27.2313 239.688 27.2313 246.22V279.285C27.2313 285.817 32.5269 291.113 39.0594 291.113H139.061C145.593 291.113 150.889 285.817 150.889 279.285V246.22C150.889 239.688 145.593 234.392 139.061 234.392H39.0594ZM125.821 255.226H52.2988V270.279H125.821V255.226Z" fill="#285DAA"/>
</svg>
